<?xml version="1.0" encoding="UTF-8"?>
<!DOCTYPE svg PUBLIC "-//W3C//DTD SVG 1.1//EN" "http://www.w3.org/Graphics/SVG/1.1/DTD/svg11.dtd">
<!-- Creator: CorelDRAW X7 -->
<svg xmlns="http://www.w3.org/2000/svg" xml:space="preserve" width="200.782mm" height="83.1699mm" version="1.1" style="shape-rendering:geometricPrecision; text-rendering:geometricPrecision; image-rendering:optimizeQuality; fill-rule:evenodd; clip-rule:evenodd"
viewBox="0 0 6288 2605"
 xmlns:xlink="http://www.w3.org/1999/xlink">
 <defs>
  <style type="text/css">
   <![CDATA[
    .str0 {stroke:#F48687;stroke-width:2.38627}
    .fil1 {fill:#F48687;fill-rule:nonzero}
    .fil0 {fill:#A8518A;fill-rule:nonzero}
    .fil2 {fill:#201E1E;fill-rule:nonzero}
   ]]>
  </style>
 </defs>
 <g id="Capa_x0020_1">
  <metadata id="CorelCorpID_0Corel-Layer"/>
  <g id="_758751984">
   <g>
    <path class="fil0" d="M669 77l-6 796 6 675c36,6 66,8 89,8 68,0 137,-13 208,-39 71,-26 133,-62 188,-107 35,-29 71,-68 109,-116 37,-49 67,-97 90,-143 13,-27 28,-41 42,-41 23,0 35,11 35,32 0,22 -17,60 -52,114 -34,54 -71,102 -112,144 -88,93 -192,157 -311,193 -72,22 -141,32 -207,32 -97,0 -193,-22 -291,-67 -156,-71 -274,-184 -356,-338 -67,-128 -101,-264 -101,-408 0,-147 35,-285 106,-415 75,-139 181,-245 318,-318 100,-53 208,-79 324,-79 198,0 370,73 515,219 69,70 103,120 103,151 0,8 -3,15 -10,22 -7,7 -15,10 -23,10 -14,0 -30,-14 -49,-43 -60,-90 -138,-160 -235,-212 -97,-52 -199,-78 -307,-78 -26,0 -50,3 -73,8z"/>
    <polygon class="fil0" points="2088,46 2089,103 2087,499 2086,669 2084,980 2088,1536 2088,1579 1559,1579 1559,1526 1561,1348 1563,1025 1565,601 1565,373 1562,122 1563,46 "/>
    <path class="fil0" d="M3060 835l0 -138c-1,-95 -2,-154 -4,-176 -2,-21 -8,-41 -19,-58 -24,-42 -82,-63 -174,-63 -141,0 -249,48 -326,142 -31,39 -57,58 -79,58 -16,0 -29,-6 -41,-18 -12,-12 -18,-26 -18,-41 0,-47 52,-95 155,-145 97,-48 224,-72 379,-72 256,0 436,42 541,126 45,37 75,78 88,123 14,46 21,126 21,241l0 446c-3,82 0,144 7,185 7,42 23,86 48,134l-580 0 0 -117c-63,47 -126,83 -188,107 -63,24 -124,36 -185,36 -102,0 -194,-33 -274,-98 -104,-85 -156,-196 -156,-332 0,-121 42,-218 127,-292 98,-88 219,-131 364,-131 60,0 112,5 158,17 45,12 98,34 156,66zm0 80c-87,-48 -154,-71 -201,-71 -40,0 -66,17 -79,51 -6,19 -10,73 -10,163l0 268c1,59 2,95 5,107 7,35 30,52 70,52 31,0 66,-10 105,-31 39,-21 74,-48 106,-82l4 -457z"/>
    <path class="fil0" d="M4348 702l-2 431 7 446 -534 0 1 -61 1 -229 4 -412 -5 -458 -1 -65 529 0 0 231c79,-91 134,-148 165,-172 72,-55 139,-82 202,-82 39,0 70,9 95,27 25,18 38,40 38,68 0,22 -7,40 -22,54 -16,14 -34,21 -57,21 -14,0 -31,-4 -48,-13 -31,-16 -56,-24 -76,-24 -49,0 -97,19 -142,56 -46,36 -98,97 -155,182z"/>
    <path class="fil0" d="M5281 1005l0 347c0,67 3,110 11,128 14,34 49,51 102,51 80,0 159,-24 238,-71 78,-47 146,-113 203,-196 19,-28 32,-45 41,-53 8,-7 17,-11 27,-11 12,0 21,5 29,14 8,9 11,21 11,35 0,32 -22,74 -69,127 -60,67 -136,123 -226,165 -90,43 -178,64 -263,64 -148,0 -277,-54 -390,-161 -65,-63 -115,-140 -151,-232 -31,-81 -46,-162 -46,-243 0,-77 13,-155 41,-234 28,-78 66,-145 114,-202 56,-67 122,-118 199,-155 75,-36 154,-54 236,-54 128,0 243,41 347,123 162,127 242,312 240,554l-241 0 -312 1 -141 3zm266 -79l0 -325c-1,-70 -2,-112 -4,-126 -1,-14 -6,-26 -14,-38 -20,-29 -59,-44 -119,-44 -61,0 -99,17 -115,50 -10,20 -14,73 -14,158l0 325 127 7 139 -7z"/>
   </g>
   <path class="fil1 str0" d="M4892 1422c4,-6 -5,-15 -18,-21 -14,-7 -26,-6 -29,1 -5,12 -12,81 -18,150 -39,-5 -77,-7 -114,-7 -23,0 -46,0 -67,2 -242,18 -452,137 -452,316 0,24 4,49 11,75 50,158 235,290 412,278 68,-6 85,-46 39,-33 -11,3 -26,8 -40,9 -161,10 -325,-119 -364,-242 -7,-25 -11,-49 -11,-71 0,-170 204,-281 434,-298 22,-1 44,-2 68,-2 27,0 54,1 81,4 -3,36 -6,72 -7,95 -10,157 -24,419 -26,589l0 49c-103,53 -142,95 -157,132 -7,28 -2,57 20,83 8,9 22,21 36,30 42,29 101,42 164,42 12,0 25,0 37,-1 30,-1 61,-6 87,-13 111,-24 227,-78 308,-160 65,-62 110,-139 136,-223l3 -13 52 -8 180 -23c10,-1 11,-2 5,-10 -6,-6 -21,-12 -64,-12 -35,0 -86,3 -165,14l4 -25c3,-16 3,-34 3,-51 0,-97 -34,-197 -110,-287 -107,-123 -285,-201 -457,-232 4,-58 11,-117 19,-137zm399 369c71,86 103,184 103,279 0,31 -4,62 -10,91l-1 0 -8 3c-242,39 -418,85 -538,134 1,-4 0,-7 0,-11 0,-168 16,-419 28,-595 1,-20 3,-59 6,-103 161,23 319,91 420,202zm-462 716c8,0 14,-5 11,-11l-1 -6c-2,-2 -5,-13 -5,-98l0 -47c109,-48 273,-97 507,-139l29 -3 -2 6c-24,70 -67,136 -122,191 -83,80 -196,132 -301,156 -32,6 -59,11 -86,12 -21,2 -43,2 -59,1 -42,-2 -72,-13 -91,-24 -23,-18 -37,-41 -27,-72 8,-35 46,-69 110,-105 4,38 -1,137 37,139zm823 -254c24,25 57,32 88,31 85,-4 197,-98 221,-139 15,-26 2,-34 -3,-29 -37,36 -168,131 -244,131 -14,0 -26,-4 -36,-11 -19,-15 6,-150 16,-159 1,-6 -6,-16 -20,-20 -15,-4 -27,-3 -28,3 -14,21 -21,57 -21,94 0,39 9,80 27,99zm26 -276c11,6 26,6 30,1 3,-6 13,-32 16,-38 3,-7 3,-15 3,-20 3,-6 -7,-15 -23,-19 -12,-5 -26,-2 -26,5l-2 18c-3,6 -12,29 -14,33 -6,5 1,15 16,20zm383 374c59,0 94,-54 117,-107 8,107 30,261 71,305 12,13 17,19 32,20 2,-4 11,-8 0,-23 -36,-50 -59,-265 -59,-357l0 -54c0,-295 19,-453 56,-599 2,-7 -6,-15 -21,-15 -13,-1 -28,5 -29,12 -38,139 -53,381 -53,578l0 62c-35,55 -102,162 -147,137 -28,-18 -37,-107 -37,-219 0,-222 37,-532 44,-555 0,-6 -10,-15 -22,-21 -13,-5 -20,-4 -21,3 -16,49 -47,339 -47,555 0,114 9,208 32,236 14,20 44,42 84,42z"/>
   <path class="fil2" d="M427 1872l19 18c-24,22 -49,33 -75,33 -29,0 -53,-10 -73,-31 -20,-20 -30,-45 -30,-75 0,-29 10,-54 30,-74 20,-21 44,-31 73,-31 26,0 51,11 75,33l-19 18c-18,-16 -37,-24 -56,-24 -21,0 -39,8 -54,23 -15,15 -22,34 -22,55 0,22 7,41 22,56 15,15 33,23 54,23 19,0 38,-8 56,-24zm143 49l0 -207 26 0 0 180 71 0 0 27 -97 0zm304 -100l-17 -48 -17 48 34 0zm-10 -107l73 207 -27 0 -26 -73 -53 0 -26 73 -28 0 73 -207 14 0zm217 27l0 87 23 0c12,0 22,-4 30,-13 8,-8 12,-19 12,-31 0,-12 -4,-22 -12,-30 -8,-9 -18,-13 -30,-13l-23 0zm23 114l-23 0 0 66 -26 0 0 -207 57 0c16,2 29,9 41,21 13,13 19,30 19,49 0,20 -6,36 -19,50 -10,10 -17,15 -22,16l45 71 -31 0 -41 -66zm298 -141l0 27 -82 0 0 63 82 0 0 27 -82 0 0 63 82 0 0 27 -108 0 0 -207 108 0zm212 107l-18 -48 -17 48 35 0zm-11 -107l73 207 -27 0 -26 -73 -53 0 -26 73 -27 0 72 -207 14 0zm217 27l0 153c21,0 37,-7 51,-21 14,-15 22,-34 22,-56 0,-21 -8,-40 -22,-55 -14,-14 -30,-21 -51,-21zm-7 -27c33,0 58,10 76,29 20,20 30,45 30,74 0,30 -10,55 -30,75 -18,19 -43,29 -76,29l-19 0 0 -207 19 0zm330 -3c28,0 52,11 72,31 20,21 30,46 30,75 0,29 -10,54 -30,75 -20,21 -44,31 -72,31 -29,0 -53,-10 -73,-31 -20,-21 -30,-46 -30,-75 0,-29 10,-54 30,-75 20,-20 44,-31 73,-31zm0 27c-22,0 -40,8 -54,23 -15,16 -23,34 -23,56 0,22 8,41 23,56 15,15 32,23 54,23 21,0 39,-8 54,-23 14,-15 22,-34 22,-56 0,-22 -8,-40 -22,-56 -15,-15 -33,-23 -54,-23zm255 3l0 87 24 0c11,0 21,-4 29,-13 9,-8 13,-19 13,-31 0,-12 -4,-22 -13,-30 -8,-9 -18,-13 -29,-13l-24 0zm24 114l-24 0 0 66 -26 0 0 -207 57 0c16,2 30,9 41,21 13,13 20,30 20,49 0,20 -7,36 -20,50 -9,10 -16,15 -21,16l44 71 -31 0 -40 -66zm395 -141l0 207 -26 0 0 -207 26 0zm-5 -49l31 0 -34 36 -24 0 27 -36zm138 49l24 0 82 148 0 -148 26 0 0 207 -22 0 -84 -150 0 150 -26 0 0 -207zm323 27l0 180 -26 0 0 -180 -47 0 0 -27 119 0 0 27 -46 0zm192 -27l0 207 -25 0 0 -207 25 0zm163 0l65 116 65 -116 23 0 0 207 -25 0 0 -150 -63 112 -63 -112 0 150 -26 0 0 -207 24 0zm389 -3c29,0 53,11 73,31 20,21 30,46 30,75 0,29 -10,54 -30,75 -20,21 -44,31 -73,31 -28,0 -52,-10 -72,-31 -20,-21 -30,-46 -30,-75 0,-29 10,-54 30,-75 20,-20 44,-31 72,-31zm0 27c-21,0 -39,8 -54,23 -15,16 -22,34 -22,56 0,22 7,41 22,56 15,15 33,23 54,23 21,0 39,-8 54,-23 15,-15 23,-34 23,-56 0,-22 -8,-40 -23,-56 -15,-15 -33,-23 -54,-23z"/>
  </g>
 </g>
</svg>
