<?xml version="1.0" encoding="UTF-8"?>
<!DOCTYPE svg PUBLIC "-//W3C//DTD SVG 1.1//EN" "http://www.w3.org/Graphics/SVG/1.1/DTD/svg11.dtd">
<!-- Creator: CorelDRAW X7 -->
<svg xmlns="http://www.w3.org/2000/svg" xml:space="preserve" width="35.0874mm" height="28.0808mm" version="1.1" style="shape-rendering:geometricPrecision; text-rendering:geometricPrecision; image-rendering:optimizeQuality; fill-rule:evenodd; clip-rule:evenodd"
viewBox="0 0 11017 8817"
 xmlns:xlink="http://www.w3.org/1999/xlink">
 <defs>
  <style type="text/css">
   <![CDATA[
    .str0 {stroke:#EC268F;stroke-width:23.9249}
    .fil2 {fill:#EC268F}
    .fil1 {fill:#EC268F;fill-rule:nonzero}
    .fil0 {fill:#87315F;fill-rule:nonzero}
   ]]>
  </style>
    <clipPath id="id0">
     <path d="M1172 4019l-12 1547 12 1312c62,11 114,16 155,16 118,0 239,-25 364,-77 124,-50 233,-119 329,-207 61,-56 125,-132 190,-227 66,-94 119,-187 158,-277 24,-53 49,-79 75,-79 40,0 60,21 60,61 0,44 -30,118 -90,222 -60,105 -125,198 -196,281 -155,180 -337,304 -546,374 -125,42 -246,63 -362,63 -169,0 -338,-44 -509,-131 -272,-138 -480,-357 -623,-657 -118,-249 -177,-513 -177,-793 0,-285 62,-554 185,-807 131,-269 317,-475 557,-618 175,-102 364,-152 567,-152 348,0 648,142 901,426 121,135 181,233 181,292 0,16 -6,31 -18,44 -12,13 -25,19 -40,19 -24,0 -52,-28 -86,-84 -104,-174 -241,-311 -411,-412 -169,-101 -349,-151 -538,-151 -44,0 -87,5 -126,15zm8072 1803l0 675c0,130 7,213 20,248 25,66 85,100 179,100 140,0 279,-46 416,-138 137,-92 256,-219 356,-382 33,-53 56,-87 71,-102 14,-14 30,-21 48,-21 20,0 37,9 50,26 14,19 21,41 21,69 0,61 -41,143 -122,246 -106,131 -238,239 -396,321 -157,83 -311,124 -461,124 -257,0 -484,-104 -681,-312 -115,-122 -203,-273 -265,-451 -54,-157 -81,-315 -81,-472 0,-151 24,-302 72,-455 49,-151 115,-283 200,-393 98,-129 213,-230 348,-301 132,-70 270,-105 413,-105 224,0 426,80 607,239 283,248 424,607 421,1077l-423 0 -544 2 -249 5zm467 -152l0 -633c-2,-136 -5,-217 -7,-244 -3,-27 -11,-52 -25,-75 -34,-56 -104,-84 -209,-84 -107,0 -173,32 -201,97 -16,39 -25,141 -25,306l0 633 223 13 244 -13zm-2099 -436l-4 837 11 868 -934 0 3 -120 2 -445 6 -800 -8 -890 -3 -126 927 0 0 449c138,-177 235,-289 289,-335 125,-106 243,-159 353,-159 67,0 123,17 167,52 44,35 66,79 66,133 0,42 -13,76 -39,104 -27,27 -60,41 -99,41 -26,0 -54,-8 -85,-26 -53,-30 -97,-45 -132,-45 -86,0 -170,36 -250,107 -80,71 -170,189 -270,355zm-2255 257l0 -266c-1,-186 -4,-300 -7,-342 -4,-42 -15,-80 -33,-113 -43,-82 -145,-123 -305,-123 -246,0 -437,92 -571,276 -54,75 -100,113 -137,113 -28,0 -52,-12 -73,-35 -20,-23 -31,-50 -31,-81 0,-91 91,-184 270,-281 172,-93 393,-140 665,-140 447,0 762,82 946,245 79,71 131,151 155,239 24,89 37,245 37,469l0 866c-5,159 -1,280 12,360 12,81 40,168 84,261l-1016 0 0 -228c-111,92 -221,161 -330,207 -109,47 -217,70 -323,70 -179,0 -339,-63 -479,-190 -182,-165 -273,-380 -273,-646 0,-233 74,-422 221,-566 172,-171 385,-256 639,-256 104,0 196,12 275,35 80,23 171,65 274,126zm0 157c-152,-93 -269,-139 -352,-139 -71,0 -116,34 -138,101 -12,35 -18,141 -18,315l0 521c1,115 4,185 9,209 12,67 53,101 122,101 55,0 116,-21 184,-61 68,-40 129,-93 186,-158l7 -889zm-1701 -1689l2 112 -4 768 -2 331 -4 605 8 1079 0 85 -927 0 0 -103 4 -347 3 -628 4 -824 -1 -443 -5 -487 2 -148 920 0z"/>
    </clipPath>
 </defs>
 <g id="Camada_x0020_1">
  <metadata id="CorelCorpID_0Corel-Layer"/>
  <g id="_986122464">
   <path class="fil0" d="M1172 4019l-12 1547 12 1312c62,11 114,16 155,16 118,0 239,-25 364,-77 124,-50 233,-119 329,-207 61,-56 125,-132 190,-227 66,-94 119,-187 158,-277 24,-53 49,-79 75,-79 40,0 60,21 60,61 0,44 -30,118 -90,222 -60,105 -125,198 -196,281 -155,180 -337,304 -546,374 -125,42 -246,63 -362,63 -169,0 -338,-44 -509,-131 -272,-138 -480,-357 -623,-657 -118,-249 -177,-513 -177,-793 0,-285 62,-554 185,-807 131,-269 317,-475 557,-618 175,-102 364,-152 567,-152 348,0 648,142 901,426 121,135 181,233 181,292 0,16 -6,31 -18,44 -12,13 -25,19 -40,19 -24,0 -52,-28 -86,-84 -104,-174 -241,-311 -411,-412 -169,-101 -349,-151 -538,-151 -44,0 -87,5 -126,15zm8072 1803l0 675c0,130 7,213 20,248 25,66 85,100 179,100 140,0 279,-46 416,-138 137,-92 256,-219 356,-382 33,-53 56,-87 71,-102 14,-14 30,-21 48,-21 20,0 37,9 50,26 14,19 21,41 21,69 0,61 -41,143 -122,246 -106,131 -238,239 -396,321 -157,83 -311,124 -461,124 -257,0 -484,-104 -681,-312 -115,-122 -203,-273 -265,-451 -54,-157 -81,-315 -81,-472 0,-151 24,-302 72,-455 49,-151 115,-283 200,-393 98,-129 213,-230 348,-301 132,-70 270,-105 413,-105 224,0 426,80 607,239 283,248 424,607 421,1077l-423 0 -544 2 -249 5zm467 -152l0 -633c-2,-136 -5,-217 -7,-244 -3,-27 -11,-52 -25,-75 -34,-56 -104,-84 -209,-84 -107,0 -173,32 -201,97 -16,39 -25,141 -25,306l0 633 223 13 244 -13zm-2099 -436l-4 837 11 868 -934 0 3 -120 2 -445 6 -800 -8 -890 -3 -126 927 0 0 449c138,-177 235,-289 289,-335 125,-106 243,-159 353,-159 67,0 123,17 167,52 44,35 66,79 66,133 0,42 -13,76 -39,104 -27,27 -60,41 -99,41 -26,0 -54,-8 -85,-26 -53,-30 -97,-45 -132,-45 -86,0 -170,36 -250,107 -80,71 -170,189 -270,355zm-2255 257l0 -266c-1,-186 -4,-300 -7,-342 -4,-42 -15,-80 -33,-113 -43,-82 -145,-123 -305,-123 -246,0 -437,92 -571,276 -54,75 -100,113 -137,113 -28,0 -52,-12 -73,-35 -20,-23 -31,-50 -31,-81 0,-91 91,-184 270,-281 172,-93 393,-140 665,-140 447,0 762,82 946,245 79,71 131,151 155,239 24,89 37,245 37,469l0 866c-5,159 -1,280 12,360 12,81 40,168 84,261l-1016 0 0 -228c-111,92 -221,161 -330,207 -109,47 -217,70 -323,70 -179,0 -339,-63 -479,-190 -182,-165 -273,-380 -273,-646 0,-233 74,-422 221,-566 172,-171 385,-256 639,-256 104,0 196,12 275,35 80,23 171,65 274,126zm0 157c-152,-93 -269,-139 -352,-139 -71,0 -116,34 -138,101 -12,35 -18,141 -18,315l0 521c1,115 4,185 9,209 12,67 53,101 122,101 55,0 116,-21 184,-61 68,-40 129,-93 186,-158l7 -889zm-1701 -1689l2 112 -4 768 -2 331 -4 605 8 1079 0 85 -927 0 0 -103 4 -347 3 -628 4 -824 -1 -443 -5 -487 2 -148 920 0z"/>
   <g style="clip-path:url(#id0)">
    <image x="0" y="3870" width="10460" height="3159" xlink:href="claredill panfleto_Images\claredill panfleto_ImgID1.png"/>
   </g>
   <path class="fil1 str0" d="M8564 6707c7,-11 -8,-28 -32,-38 -24,-13 -46,-11 -50,2 -9,21 -21,143 -32,266 -67,-9 -134,-13 -199,-13 -41,0 -80,0 -117,4 -424,32 -792,243 -792,562 0,42 7,86 20,133 87,280 411,515 720,494 119,-11 149,-83 69,-59 -19,6 -45,14 -71,16 -281,17 -569,-211 -636,-430 -13,-44 -19,-87 -19,-127 0,-302 356,-498 759,-527 39,-3 78,-5 119,-5 47,0 95,2 142,7 -6,65 -10,128 -13,168 -17,279 -41,746 -45,1047l0 87c-180,95 -249,169 -275,234 -13,51 -4,102 35,148 15,17 39,38 63,53 73,53 177,76 287,76 22,0 44,0 65,-2 52,-3 106,-11 152,-24 194,-42 397,-139 540,-285 113,-109 193,-246 238,-394l4 -23 91 -15 316 -40c17,-2 19,-5 9,-19 -11,-11 -37,-21 -113,-21 -60,0 -149,6 -287,25l6 -44c4,-30 4,-62 4,-91 0,-173 -58,-351 -192,-511 -186,-217 -498,-357 -800,-412 8,-103 19,-206 34,-242zm699 654c123,154 179,327 179,496 0,55 -6,110 -17,163l-2 0 -13 4c-424,69 -733,152 -943,238 2,-6 0,-12 0,-19 0,-299 28,-745 50,-1057 2,-36 4,-106 11,-184 281,42 557,163 735,359zm-809 1273c13,0 24,-9 19,-19l-2 -11c-4,-4 -8,-23 -8,-175l0 -82c190,-87 478,-173 886,-247l52 -7 -4 11c-41,125 -117,243 -214,340 -145,141 -342,234 -526,276 -56,11 -103,19 -151,21 -37,5 -76,5 -104,2 -73,-4 -125,-23 -158,-42 -41,-31 -65,-74 -47,-128 13,-62 80,-123 192,-186 7,67 -2,243 65,247zm1440 -452c41,44 100,57 154,55 149,-6 346,-173 387,-247 26,-46 4,-59 -4,-51 -65,64 -295,233 -429,233 -23,0 -45,-7 -62,-19 -33,-28 10,-266 28,-283 2,-11 -11,-28 -35,-36 -26,-7 -47,-4 -50,6 -23,36 -36,101 -36,167 0,70 15,141 47,175zm46 -490c19,11 45,11 52,3 6,-11 23,-57 28,-68 6,-13 6,-27 6,-36 5,-10 -13,-27 -41,-34 -22,-8 -45,-4 -45,9l-5 31c-4,11 -19,53 -23,60 -11,8 2,27 28,35zm670 665c104,0 164,-97 205,-190 13,190 52,463 124,541 21,23 30,33 56,35 4,-6 19,-14 0,-40 -63,-88 -104,-470 -104,-635l0 -95c0,-523 35,-804 100,-1064 2,-12 -11,-27 -37,-27 -24,-2 -50,8 -52,21 -67,247 -93,678 -93,1028l0 110c-61,97 -177,287 -257,242 -48,-31 -65,-190 -65,-388 0,-395 65,-946 78,-986 0,-10 -18,-27 -39,-38 -22,-8 -35,-6 -37,7 -28,86 -82,601 -82,985 0,203 15,370 56,418 24,36 78,76 147,76z"/>
   <path class="fil2 str0" d="M6308 4737c60,-110 1279,-1239 822,-2395 -352,-892 -1023,-1044 -1066,-1528 -29,-319 72,-503 109,-772 -117,148 -181,436 -210,657 -94,704 541,620 1012,1554 240,477 158,919 -31,1398 -133,339 -458,877 -636,1086zm-2039 -891c-38,-290 -140,-616 -189,-935 -53,-347 -70,-670 -95,-1022 -40,340 -33,676 25,1039 34,217 120,610 199,816l60 102zm513 -861c-290,-395 -422,-515 -596,-1073 -186,-594 -131,-951 -144,-1572 -137,343 -62,1214 44,1570 132,442 426,915 696,1075zm-606 1734c240,-480 407,-814 696,-1212 126,-174 307,-389 444,-515 265,-242 253,-203 475,-361l73 -63c-396,77 -859,530 -1086,844 -174,240 -565,942 -602,1307z"/>
  </g>
 </g>
</svg>
